<svg width="127" height="24" viewBox="0 0 127 24" fill="none" xmlns="http://www.w3.org/2000/svg">
<path fill-rule="evenodd" clip-rule="evenodd" d="M115.986 0H112.776V19.404H115.986V0ZM6.7 5.215H8.53V8.053H6.7C5.565 8.053 4.42 8.335 3.681 9.121C2.943 9.906 2.665 11.111 2.665 12.315C2.665 13.519 2.932 14.723 3.681 15.508C4.431 16.294 5.565 16.576 6.699 16.576C7.834 16.576 8.979 16.294 9.717 15.508C10.456 14.723 10.734 13.518 10.734 12.315V0.649H13.944V19.404H10.734V18.21H10.145C10.0836 18.2788 10.0196 18.3452 9.953 18.409C9.15 19.142 7.919 19.404 6.71 19.404C4.816 19.404 2.922 18.932 1.68 17.624C0.44 16.314 0 14.303 0 12.303C0 10.303 0.45 8.303 1.68 6.983C2.922 5.675 4.816 5.213 6.7 5.213V5.215ZM55.564 18.9H53.734V16.063H55.564C56.698 16.063 57.844 15.78 58.581 14.995C59.32 14.21 59.598 13.005 59.598 11.801C59.598 10.597 59.331 9.393 58.581 8.607C57.832 7.822 56.698 7.539 55.564 7.539C54.43 7.539 53.284 7.822 52.546 8.607C51.808 9.393 51.529 10.597 51.529 11.801V23.456H48.319V4.712H51.529V5.906H52.119C52.1784 5.83892 52.2405 5.7742 52.305 5.712L52.31 5.707C53.113 4.974 54.344 4.712 55.553 4.712C57.448 4.712 59.341 5.183 60.583 6.492C61.824 7.802 62.263 9.812 62.263 11.812C62.263 13.812 61.813 15.812 60.583 17.131C59.353 18.451 57.448 18.9 55.564 18.9ZM30.05 13.204V12.064C30.05 10 29.59 7.927 28.296 6.566C27.011 5.204 25.032 4.723 23.073 4.723C21.115 4.723 19.145 5.215 17.851 6.566C16.556 7.916 16.096 10 16.096 12.063C16.096 14.126 16.566 16.199 17.851 17.561C19.135 18.921 21.115 19.404 23.073 19.404C25.032 19.404 27.011 18.911 28.296 17.561C28.959 16.869 29.398 15.979 29.676 14.995H26.508C26.4138 15.122 26.3137 15.2445 26.208 15.362C25.438 16.178 24.25 16.472 23.073 16.472C21.896 16.472 20.708 16.168 19.937 15.362C19.167 14.555 18.889 13.299 18.889 12.063C18.889 10.827 19.167 9.581 19.938 8.765C20.708 7.948 21.896 7.655 23.073 7.655C24.25 7.655 25.438 7.948 26.209 8.765C26.744 9.33 27.043 10.105 27.172 10.932H21.5V13.204H30.05ZM46.168 12.063V13.204H37.618V10.932H43.289C43.16 10.105 42.861 9.33 42.326 8.765C41.556 7.948 40.367 7.655 39.19 7.655C38.013 7.655 36.825 7.948 36.054 8.765C35.284 9.581 35.005 10.828 35.005 12.063C35.005 13.299 35.284 14.555 36.055 15.362C36.825 16.168 38.013 16.472 39.19 16.472C40.367 16.472 41.555 16.178 42.326 15.362C42.433 15.246 42.529 15.121 42.625 14.995H45.793C45.515 15.98 45.076 16.869 44.413 17.561C43.128 18.911 41.149 19.404 39.19 19.404C37.231 19.404 35.252 18.922 33.968 17.561C32.683 16.199 32.212 14.126 32.212 12.063C32.212 10 32.672 7.916 33.967 6.566C35.263 5.215 37.231 4.723 39.19 4.723C41.149 4.723 43.128 5.204 44.412 6.566C45.708 7.926 46.168 10 46.168 12.063ZM76.635 18.315C75.351 19.121 73.372 19.404 71.413 19.404C69.455 19.404 67.496 19.11 66.201 18.314C64.906 17.519 64.446 16.284 64.446 15.068H68.213C68.213 15.54 68.438 16.021 69.037 16.325C69.637 16.629 70.577 16.744 71.499 16.744C72.419 16.744 73.35 16.629 73.959 16.324C74.57 16.021 74.784 15.54 74.784 15.068C74.784 14.598 74.57 14.116 73.96 13.812C73.35 13.508 72.333 13.393 71.413 13.393C69.636 13.393 67.85 13.1 66.683 12.303C65.516 11.508 65.099 10.273 65.099 9.058C65.099 7.843 65.516 6.618 66.683 5.812C67.85 5.005 69.636 4.722 71.413 4.722C73.189 4.722 74.977 5.016 76.143 5.812C77.31 6.607 77.727 7.843 77.727 9.058H74.463C74.463 8.587 74.26 8.116 73.714 7.801C73.168 7.498 72.323 7.382 71.488 7.382C70.653 7.382 69.808 7.487 69.262 7.802C68.706 8.105 68.512 8.587 68.512 9.058C68.512 9.528 68.716 10 69.262 10.314C69.807 10.618 70.578 10.734 71.413 10.734C73.372 10.734 75.351 11.026 76.635 11.822C77.93 12.618 78.391 13.854 78.391 15.068C78.391 16.283 77.92 17.508 76.635 18.315ZM94.507 12.063V13.204H85.957V10.932H91.629C91.5 10.105 91.2 9.33 90.666 8.765C89.895 7.948 88.707 7.655 87.53 7.655C86.353 7.655 85.164 7.948 84.394 8.765C83.624 9.581 83.346 10.828 83.346 12.063C83.346 13.299 83.624 14.555 84.394 15.362C85.164 16.168 86.353 16.472 87.529 16.472C88.707 16.472 89.895 16.178 90.666 15.362C90.772 15.246 90.869 15.121 90.966 14.995H94.133C93.854 15.98 93.416 16.869 92.753 17.561C91.469 18.911 89.488 19.404 87.529 19.404C85.572 19.404 83.591 18.922 82.307 17.561C81.023 16.199 80.553 14.126 80.553 12.063C80.553 10 81.013 7.916 82.307 6.566C83.603 5.215 85.572 4.723 87.529 4.723C89.489 4.723 91.469 5.204 92.753 6.566C94.047 7.926 94.507 10 94.507 12.063ZM110.624 13.204V12.064C110.624 10 110.164 7.927 108.87 6.566C107.585 5.204 105.605 4.723 103.647 4.723C101.688 4.723 99.719 5.215 98.425 6.566C97.129 7.916 96.669 10 96.669 12.063C96.669 14.126 97.14 16.199 98.425 17.561C99.709 18.921 101.688 19.404 103.647 19.404C105.605 19.404 107.585 18.911 108.87 17.561C109.533 16.869 109.972 15.979 110.25 14.995H107.082L107.07 15.011C106.977 15.131 106.885 15.251 106.782 15.361C106.012 16.178 104.825 16.471 103.647 16.471C102.47 16.471 101.282 16.168 100.511 15.361C99.741 14.555 99.462 13.299 99.462 12.063C99.462 10.827 99.741 9.581 100.511 8.765C101.282 7.948 102.47 7.655 103.647 7.655C104.825 7.655 106.012 7.948 106.782 8.765C107.318 9.33 107.618 10.105 107.746 10.932H102.074V13.204H110.624ZM126.73 19.404L121.466 11.624L126.73 5.372H122.76L117.495 11.623L122.76 19.403L126.73 19.404Z" fill="white"/>
</svg>
